<svg width="24" height="24" viewBox="0 0 24 24" fill="none" xmlns="http://www.w3.org/2000/svg">
<path d="M22.6998 17.5L14.5998 3.49999C13.7998 2.09999 11.8998 1.59999 10.4998 2.39999C9.99977 2.69999 9.59977 3.09999 9.39977 3.49999L1.29977 17.5C0.499767 18.9 0.999767 20.8 2.39977 21.6C2.89977 21.9 3.39977 22 3.89977 22H19.9998C21.6998 22 22.9998 20.6 22.9998 19C23.0998 18.4 22.8998 17.9 22.6998 17.5ZM11.9998 18C11.3998 18 10.9998 17.6 10.9998 17C10.9998 16.4 11.3998 16 11.9998 16C12.5998 16 12.9998 16.4 12.9998 17C12.9998 17.6 12.5998 18 11.9998 18ZM12.9998 13C12.9998 13.6 12.5998 14 11.9998 14C11.3998 14 10.9998 13.6 10.9998 13V8.99999C10.9998 8.39999 11.3998 7.99999 11.9998 7.99999C12.5998 7.99999 12.9998 8.39999 12.9998 8.99999V13Z" fill="#B92020"/>
</svg>
