<svg width="38" height="38" viewBox="0 0 38 38" fill="none" xmlns="http://www.w3.org/2000/svg">
<path d="M19 11.0833C19.6263 11.0833 20.2385 10.8976 20.7593 10.5497C21.28 10.2017 21.6859 9.70713 21.9256 9.1285C22.1653 8.54987 22.228 7.91316 22.1058 7.29888C21.9836 6.68461 21.682 6.12036 21.2392 5.6775C20.7963 5.23463 20.232 4.93303 19.6178 4.81085C19.0035 4.68866 18.3668 4.75137 17.7882 4.99105C17.2095 5.23073 16.715 5.63661 16.367 6.15736C16.019 6.67812 15.8333 7.29036 15.8333 7.91667C15.8333 8.75652 16.1669 9.56198 16.7608 10.1558C17.3547 10.7497 18.1601 11.0833 19 11.0833ZM19 26.9167C18.3737 26.9167 17.7614 27.1024 17.2407 27.4503C16.7199 27.7983 16.314 28.2929 16.0744 28.8715C15.8347 29.4501 15.772 30.0868 15.8942 30.7011C16.0163 31.3154 16.3179 31.8796 16.7608 32.3225C17.2037 32.7654 17.7679 33.067 18.3822 33.1892C18.9965 33.3113 19.6332 33.2486 20.2118 33.009C20.7904 32.7693 21.285 32.3634 21.633 31.8426C21.9809 31.3219 22.1666 30.7096 22.1666 30.0833C22.1666 29.2435 21.833 28.438 21.2392 27.8442C20.6453 27.2503 19.8398 26.9167 19 26.9167ZM19 15.8333C18.3737 15.8333 17.7614 16.0191 17.2407 16.367C16.7199 16.715 16.314 17.2095 16.0744 17.7882C15.8347 18.3668 15.772 19.0035 15.8942 19.6178C16.0163 20.2321 16.3179 20.7963 16.7608 21.2392C17.2037 21.682 17.7679 21.9836 18.3822 22.1058C18.9965 22.228 19.6332 22.1653 20.2118 21.9256C20.7904 21.6859 21.285 21.2801 21.633 20.7593C21.9809 20.2386 22.1666 19.6263 22.1666 19C22.1666 18.1602 21.833 17.3547 21.2392 16.7608C20.6453 16.167 19.8398 15.8333 19 15.8333Z" fill="#777474"/>
</svg>
