<svg width="31" height="31" viewBox="0 0 31 31" fill="none" xmlns="http://www.w3.org/2000/svg">
<path d="M11.625 16.7917H14.2084V19.375C14.2084 19.7176 14.3445 20.0461 14.5867 20.2884C14.8289 20.5306 15.1575 20.6667 15.5 20.6667C15.8426 20.6667 16.1712 20.5306 16.4134 20.2884C16.6556 20.0461 16.7917 19.7176 16.7917 19.375V16.7917H19.375C19.7176 16.7917 20.0462 16.6556 20.2884 16.4134C20.5306 16.1711 20.6667 15.8426 20.6667 15.5C20.6667 15.1574 20.5306 14.8289 20.2884 14.5867C20.0462 14.3444 19.7176 14.2083 19.375 14.2083H16.7917V11.625C16.7917 11.2824 16.6556 10.9539 16.4134 10.7117C16.1712 10.4694 15.8426 10.3333 15.5 10.3333C15.1575 10.3333 14.8289 10.4694 14.5867 10.7117C14.3445 10.9539 14.2084 11.2824 14.2084 11.625V14.2083H11.625C11.2825 14.2083 10.9539 14.3444 10.7117 14.5867C10.4695 14.8289 10.3334 15.1574 10.3334 15.5C10.3334 15.8426 10.4695 16.1711 10.7117 16.4134C10.9539 16.6556 11.2825 16.7917 11.625 16.7917ZM27.125 2.58334H3.87504C3.53247 2.58334 3.20393 2.71943 2.96169 2.96166C2.71946 3.2039 2.58337 3.53244 2.58337 3.87501V27.125C2.58337 27.4676 2.71946 27.7961 2.96169 28.0384C3.20393 28.2806 3.53247 28.4167 3.87504 28.4167H27.125C27.4676 28.4167 27.7962 28.2806 28.0384 28.0384C28.2806 27.7961 28.4167 27.4676 28.4167 27.125V3.87501C28.4167 3.53244 28.2806 3.2039 28.0384 2.96166C27.7962 2.71943 27.4676 2.58334 27.125 2.58334ZM25.8334 25.8333H5.16671V5.16668H25.8334V25.8333Z" fill="#777474"/>
</svg>
