<svg width="41" height="61" viewBox="0 0 41 61" fill="none" xmlns="http://www.w3.org/2000/svg">
<circle cx="20.5" cy="20.5" r="20.5" fill="#C2E2F3"/>
<path d="M15.457 53.8594C15.8672 53.8594 16.1862 53.8024 16.4141 53.6885C16.7721 53.5094 16.9512 53.1872 16.9512 52.7217C16.9512 52.2529 16.7607 51.9372 16.3799 51.7744C16.165 51.6833 15.846 51.6377 15.4229 51.6377H13.6895V53.8594H15.457ZM15.7842 57.1699C16.3799 57.1699 16.8047 56.9974 17.0586 56.6523C17.2181 56.4342 17.2979 56.1706 17.2979 55.8613C17.2979 55.3405 17.0651 54.9857 16.5996 54.7969C16.3522 54.696 16.0251 54.6455 15.6182 54.6455H13.6895V57.1699H15.7842ZM12.7373 50.8271H15.8184C16.6582 50.8271 17.2555 51.0778 17.6104 51.5791C17.8187 51.8753 17.9229 52.2171 17.9229 52.6045C17.9229 53.057 17.7943 53.4281 17.5371 53.7178C17.4036 53.8708 17.2116 54.0107 16.9609 54.1377C17.3288 54.2777 17.6038 54.4355 17.7861 54.6113C18.1084 54.9238 18.2695 55.3551 18.2695 55.9053C18.2695 56.3675 18.1247 56.7858 17.835 57.1602C17.402 57.7201 16.7135 58 15.7695 58H12.7373V50.8271ZM20.1934 52.7705V56.2422C20.1934 56.5091 20.2357 56.7272 20.3203 56.8965C20.4766 57.209 20.7679 57.3652 21.1943 57.3652C21.8063 57.3652 22.223 57.0918 22.4443 56.5449C22.5648 56.252 22.625 55.8499 22.625 55.3389V52.7705H23.5039V58H22.6738L22.6836 57.2285C22.5697 57.4271 22.4281 57.5947 22.2588 57.7314C21.9235 58.0049 21.5166 58.1416 21.0381 58.1416C20.2926 58.1416 19.7848 57.8926 19.5146 57.3945C19.3682 57.1276 19.2949 56.7712 19.2949 56.3252V52.7705H20.1934ZM28.1475 52.7705H29.1191C28.9954 53.1058 28.7204 53.8708 28.2939 55.0654C27.9749 55.9639 27.708 56.6963 27.4932 57.2627C26.9854 58.5973 26.6273 59.4111 26.4189 59.7041C26.2106 59.9971 25.8525 60.1436 25.3447 60.1436C25.221 60.1436 25.125 60.1387 25.0566 60.1289C24.9915 60.1191 24.9102 60.1012 24.8125 60.0752V59.2744C24.9655 59.3167 25.0762 59.3428 25.1445 59.3525C25.2129 59.3623 25.2731 59.3672 25.3252 59.3672C25.488 59.3672 25.6068 59.3395 25.6816 59.2842C25.7598 59.2321 25.8249 59.167 25.877 59.0889C25.8932 59.0628 25.9518 58.9294 26.0527 58.6885C26.1536 58.4476 26.2269 58.2686 26.2725 58.1514L24.3389 52.7705H25.335L26.7363 57.0283L28.1475 52.7705Z" fill="#C2E2F3"/>
<path d="M28 15H25V14C25 12.9391 24.5786 11.9217 23.8284 11.1716C23.0783 10.4214 22.0609 10 21 10C19.9391 10 18.9217 10.4214 18.1716 11.1716C17.4214 11.9217 17 12.9391 17 14V15H14C13.7348 15 13.4804 15.1054 13.2929 15.2929C13.1054 15.4804 13 15.7348 13 16V27C13 27.7956 13.3161 28.5587 13.8787 29.1213C14.4413 29.6839 15.2044 30 16 30H26C26.7956 30 27.5587 29.6839 28.1213 29.1213C28.6839 28.5587 29 27.7956 29 27V16C29 15.7348 28.8946 15.4804 28.7071 15.2929C28.5196 15.1054 28.2652 15 28 15ZM19 14C19 13.4696 19.2107 12.9609 19.5858 12.5858C19.9609 12.2107 20.4696 12 21 12C21.5304 12 22.0391 12.2107 22.4142 12.5858C22.7893 12.9609 23 13.4696 23 14V15H19V14ZM27 27C27 27.2652 26.8946 27.5196 26.7071 27.7071C26.5196 27.8946 26.2652 28 26 28H16C15.7348 28 15.4804 27.8946 15.2929 27.7071C15.1054 27.5196 15 27.2652 15 27V17H17V18C17 18.2652 17.1054 18.5196 17.2929 18.7071C17.4804 18.8946 17.7348 19 18 19C18.2652 19 18.5196 18.8946 18.7071 18.7071C18.8946 18.5196 19 18.2652 19 18V17H23V18C23 18.2652 23.1054 18.5196 23.2929 18.7071C23.4804 18.8946 23.7348 19 24 19C24.2652 19 24.5196 18.8946 24.7071 18.7071C24.8946 18.5196 25 18.2652 25 18V17H27V27Z" fill="white"/>
</svg>
