<svg width="41" height="60" viewBox="0 0 41 60" fill="none" xmlns="http://www.w3.org/2000/svg">
<circle cx="20.5" cy="20.5" r="20.5" fill="#4493BD"/>
<path d="M11.7842 50.6318C12.6924 50.6318 13.3971 50.8711 13.8984 51.3496C14.3997 51.8281 14.6781 52.3717 14.7334 52.9805H13.7861C13.6787 52.5182 13.4639 52.152 13.1416 51.8818C12.8226 51.6117 12.3734 51.4766 11.7939 51.4766C11.0876 51.4766 10.5163 51.7256 10.0801 52.2236C9.64714 52.7184 9.43066 53.4785 9.43066 54.5039C9.43066 55.3438 9.62598 56.0257 10.0166 56.5498C10.4105 57.0706 10.9964 57.3311 11.7744 57.3311C12.4906 57.3311 13.0358 57.056 13.4102 56.5059C13.6087 56.2161 13.7568 55.8353 13.8545 55.3633H14.8018C14.7171 56.1185 14.4372 56.7516 13.9619 57.2627C13.3923 57.8779 12.624 58.1855 11.6572 58.1855C10.8239 58.1855 10.124 57.9333 9.55762 57.4287C8.81217 56.7614 8.43945 55.7311 8.43945 54.3379C8.43945 53.2799 8.7194 52.4124 9.2793 51.7354C9.88477 50.9997 10.7197 50.6318 11.7842 50.6318ZM15.8955 50.8271H16.7744V58H15.8955V50.8271ZM18.7715 56.6084C18.7715 56.8623 18.8643 57.0625 19.0498 57.209C19.2354 57.3555 19.4551 57.4287 19.709 57.4287C20.0182 57.4287 20.3177 57.3571 20.6074 57.2139C21.0957 56.9762 21.3398 56.5872 21.3398 56.0469V55.3389C21.2324 55.4072 21.0941 55.4642 20.9248 55.5098C20.7555 55.5553 20.5895 55.5879 20.4268 55.6074L19.8945 55.6758C19.5755 55.7181 19.3363 55.7848 19.1768 55.876C18.9066 56.029 18.7715 56.2731 18.7715 56.6084ZM20.9004 54.8311C21.1022 54.805 21.2373 54.7204 21.3057 54.5771C21.3447 54.499 21.3643 54.3867 21.3643 54.2402C21.3643 53.9408 21.2568 53.7243 21.042 53.5908C20.8304 53.4541 20.526 53.3857 20.1289 53.3857C19.6699 53.3857 19.3444 53.5094 19.1523 53.7568C19.0449 53.8936 18.9749 54.097 18.9424 54.3672H18.1221C18.1383 53.7227 18.3467 53.2751 18.7471 53.0244C19.1507 52.7705 19.6178 52.6436 20.1484 52.6436C20.7637 52.6436 21.2633 52.7607 21.6475 52.9951C22.0283 53.2295 22.2188 53.5941 22.2188 54.0889V57.1016C22.2188 57.1927 22.2367 57.266 22.2725 57.3213C22.3115 57.3766 22.3913 57.4043 22.5117 57.4043C22.5508 57.4043 22.5947 57.4027 22.6436 57.3994C22.6924 57.3929 22.7445 57.3848 22.7998 57.375V58.0244C22.6631 58.0635 22.5589 58.0879 22.4873 58.0977C22.4157 58.1074 22.318 58.1123 22.1943 58.1123C21.8916 58.1123 21.6719 58.0049 21.5352 57.79C21.4635 57.6761 21.4131 57.515 21.3838 57.3066C21.2048 57.541 20.9476 57.7445 20.6123 57.917C20.277 58.0895 19.9076 58.1758 19.5039 58.1758C19.0189 58.1758 18.6217 58.0293 18.3125 57.7363C18.0065 57.4401 17.8535 57.0706 17.8535 56.6279C17.8535 56.1429 18.0049 55.7669 18.3076 55.5C18.6104 55.2331 19.0075 55.0687 19.499 55.0068L20.9004 54.8311ZM23.6641 52.7949H24.5576V58H23.6641V52.7949ZM23.6641 50.8271H24.5576V51.8232H23.6641V50.8271ZM25.8906 52.7705H26.7598V53.5127C26.9681 53.2555 27.1569 53.0684 27.3262 52.9512C27.6159 52.7526 27.9447 52.6533 28.3125 52.6533C28.7292 52.6533 29.0645 52.7559 29.3184 52.9609C29.4616 53.0781 29.5918 53.2507 29.709 53.4785C29.9043 53.1986 30.1338 52.9919 30.3975 52.8584C30.6611 52.7217 30.9574 52.6533 31.2861 52.6533C31.9893 52.6533 32.4678 52.9072 32.7217 53.415C32.8584 53.6885 32.9268 54.0563 32.9268 54.5186V58H32.0137V54.3672C32.0137 54.0189 31.9258 53.7796 31.75 53.6494C31.5775 53.5192 31.3659 53.4541 31.1152 53.4541C30.7702 53.4541 30.4723 53.5697 30.2217 53.8008C29.9743 54.0319 29.8506 54.4176 29.8506 54.958V58H28.957V54.5869C28.957 54.2321 28.9147 53.9733 28.8301 53.8105C28.6966 53.5664 28.4476 53.4443 28.083 53.4443C27.751 53.4443 27.4482 53.5729 27.1748 53.8301C26.9046 54.0872 26.7695 54.5527 26.7695 55.2266V58H25.8906V52.7705Z" fill="#4493BD"/>
<path d="M18 16C17.7348 16 17.4804 16.1054 17.2929 16.2929C17.1054 16.4804 17 16.7348 17 17C17 17.2652 17.1054 17.5196 17.2929 17.7071C17.4804 17.8946 17.7348 18 18 18H19C19.2652 18 19.5196 17.8946 19.7071 17.7071C19.8946 17.5196 20 17.2652 20 17C20 16.7348 19.8946 16.4804 19.7071 16.2929C19.5196 16.1054 19.2652 16 19 16H18ZM23 28H16C15.7348 28 15.4804 27.8946 15.2929 27.7071C15.1054 27.5196 15 27.2652 15 27V13C15 12.7348 15.1054 12.4804 15.2929 12.2929C15.4804 12.1054 15.7348 12 16 12H21V15C21 15.7956 21.3161 16.5587 21.8787 17.1213C22.4413 17.6839 23.2044 18 24 18H27V20C27 20.2652 27.1054 20.5196 27.2929 20.7071C27.4804 20.8946 27.7348 21 28 21C28.2652 21 28.5196 20.8946 28.7071 20.7071C28.8946 20.5196 29 20.2652 29 20V17C29 17 29 17 29 16.94C28.9896 16.8481 28.9695 16.7576 28.94 16.67V16.58C28.8919 16.4772 28.8278 16.3827 28.75 16.3L22.75 10.3C22.6673 10.2222 22.5728 10.1581 22.47 10.11C22.4369 10.1042 22.4031 10.1042 22.37 10.11C22.2728 10.058 22.1683 10.0209 22.06 10H16C15.2044 10 14.4413 10.3161 13.8787 10.8787C13.3161 11.4413 13 12.2044 13 13V27C13 27.7956 13.3161 28.5587 13.8787 29.1213C14.4413 29.6839 15.2044 30 16 30H23C23.2652 30 23.5196 29.8946 23.7071 29.7071C23.8946 29.5196 24 29.2652 24 29C24 28.7348 23.8946 28.4804 23.7071 28.2929C23.5196 28.1054 23.2652 28 23 28ZM23 13.41L25.59 16H24C23.7348 16 23.4804 15.8946 23.2929 15.7071C23.1054 15.5196 23 15.2652 23 15V13.41ZM24 20H18C17.7348 20 17.4804 20.1054 17.2929 20.2929C17.1054 20.4804 17 20.7348 17 21C17 21.2652 17.1054 21.5196 17.2929 21.7071C17.4804 21.8946 17.7348 22 18 22H24C24.2652 22 24.5196 21.8946 24.7071 21.7071C24.8946 21.5196 25 21.2652 25 21C25 20.7348 24.8946 20.4804 24.7071 20.2929C24.5196 20.1054 24.2652 20 24 20ZM30.71 26.29C30.617 26.1963 30.5064 26.1219 30.3846 26.0711C30.2627 26.0203 30.132 25.9942 30 25.9942C29.868 25.9942 29.7373 26.0203 29.6154 26.0711C29.4936 26.1219 29.383 26.1963 29.29 26.29L29 26.59V24C29 23.7348 28.8946 23.4804 28.7071 23.2929C28.5196 23.1054 28.2652 23 28 23C27.7348 23 27.4804 23.1054 27.2929 23.2929C27.1054 23.4804 27 23.7348 27 24V26.59L26.71 26.29C26.5217 26.1017 26.2663 25.9959 26 25.9959C25.7337 25.9959 25.4783 26.1017 25.29 26.29C25.1017 26.4783 24.9959 26.7337 24.9959 27C24.9959 27.2663 25.1017 27.5217 25.29 27.71L27.29 29.71C27.3851 29.801 27.4972 29.8724 27.62 29.92C27.7397 29.9729 27.8691 30.0002 28 30.0002C28.1309 30.0002 28.2603 29.9729 28.38 29.92C28.5028 29.8724 28.6149 29.801 28.71 29.71L30.71 27.71C30.8037 27.617 30.8781 27.5064 30.9289 27.3846C30.9797 27.2627 31.0058 27.132 31.0058 27C31.0058 26.868 30.9797 26.7373 30.9289 26.6154C30.8781 26.4936 30.8037 26.383 30.71 26.29ZM22 26C22.2652 26 22.5196 25.8946 22.7071 25.7071C22.8946 25.5196 23 25.2652 23 25C23 24.7348 22.8946 24.4804 22.7071 24.2929C22.5196 24.1054 22.2652 24 22 24H18C17.7348 24 17.4804 24.1054 17.2929 24.2929C17.1054 24.4804 17 24.7348 17 25C17 25.2652 17.1054 25.5196 17.2929 25.7071C17.4804 25.8946 17.7348 26 18 26H22Z" fill="white"/>
</svg>
