<svg width="41" height="60" viewBox="0 0 41 60" fill="none" xmlns="http://www.w3.org/2000/svg">
<circle cx="20.5" cy="20.5" r="20.5" fill="#C2E2F3"/>
<path d="M11.7617 50.8271H12.7334V57.1455H16.3662V58H11.7617V50.8271ZM17.2109 52.7949H18.1045V58H17.2109V52.7949ZM17.2109 50.8271H18.1045V51.8232H17.2109V50.8271ZM19.418 50.8271H20.2627V54.9922L22.5186 52.7705H23.6416L21.6396 54.7285L23.7539 58H22.6309L21 55.3633L20.2627 56.0371V58H19.418V50.8271ZM26.6152 52.6533C26.9863 52.6533 27.346 52.7412 27.6943 52.917C28.0426 53.0895 28.3079 53.3141 28.4902 53.5908C28.666 53.8545 28.7832 54.1621 28.8418 54.5137C28.8939 54.7546 28.9199 55.1387 28.9199 55.666H25.0869C25.1032 56.1966 25.2285 56.623 25.4629 56.9453C25.6973 57.2643 26.0602 57.4238 26.5518 57.4238C27.0107 57.4238 27.377 57.2725 27.6504 56.9697C27.8066 56.7939 27.9173 56.5905 27.9824 56.3594H28.8467C28.8239 56.5514 28.7474 56.7663 28.6172 57.0039C28.4902 57.2383 28.347 57.4303 28.1875 57.5801C27.9206 57.8405 27.5902 58.0163 27.1963 58.1074C26.9847 58.1595 26.7454 58.1855 26.4785 58.1855C25.8275 58.1855 25.2757 57.9495 24.8232 57.4775C24.3708 57.0023 24.1445 56.3382 24.1445 55.4854C24.1445 54.6455 24.3724 53.9635 24.8281 53.4395C25.2839 52.9154 25.8796 52.6533 26.6152 52.6533ZM28.0166 54.9678C27.9808 54.5869 27.8978 54.2826 27.7676 54.0547C27.5267 53.6315 27.1247 53.4199 26.5615 53.4199C26.1579 53.4199 25.8193 53.5664 25.5459 53.8594C25.2725 54.1491 25.1276 54.5186 25.1113 54.9678H28.0166Z" fill="#4493BD"/>
<path d="M29.345 17.7339C29.0779 17.411 28.7437 17.1511 28.3659 16.9724C27.9882 16.7938 27.5761 16.7009 27.1588 16.7002H22.8244L23.3567 15.3314C23.5781 14.7321 23.6519 14.0877 23.5716 13.4534C23.4913 12.8191 23.2595 12.2139 22.8959 11.6897C22.5323 11.1654 22.0479 10.7378 21.4841 10.4435C20.9204 10.1493 20.2942 9.99707 19.6592 10C19.4764 10.0004 19.2975 10.0539 19.1441 10.1541C18.9907 10.2542 18.8692 10.3968 18.7942 10.5648L16.0853 16.7002H13.8515C13.0953 16.7002 12.37 17.0027 11.8352 17.5412C11.3004 18.0797 11 18.8101 11 19.5716V26.2718C11 27.0333 11.3004 27.7637 11.8352 28.3022C12.37 28.8407 13.0953 29.1432 13.8515 29.1432H25.9516C26.6187 29.143 27.2646 28.9073 27.7769 28.4771C28.2892 28.0469 28.6356 27.4494 28.7556 26.7886L29.9628 20.0885C30.0375 19.6744 30.0208 19.2489 29.9141 18.842C29.8073 18.4351 29.613 18.0568 29.345 17.7339ZM15.7526 27.2289H13.8515C13.5995 27.2289 13.3577 27.1281 13.1794 26.9486C13.0012 26.7691 12.901 26.5256 12.901 26.2718V19.5716C12.901 19.3178 13.0012 19.0743 13.1794 18.8948C13.3577 18.7153 13.5995 18.6145 13.8515 18.6145H15.7526V27.2289ZM28.1093 19.7439L26.9021 26.4441C26.8617 26.667 26.7439 26.8683 26.5698 27.012C26.3958 27.1558 26.1767 27.2326 25.9516 27.2289H17.6536V17.8583L20.239 12.0005C20.5051 12.0786 20.7523 12.2115 20.9649 12.3906C21.1775 12.5698 21.3509 12.7914 21.4741 13.0414C21.5974 13.2914 21.6678 13.5645 21.681 13.8433C21.6942 14.1222 21.6498 14.4007 21.5507 14.6614L21.047 16.0302C20.9396 16.3195 20.9034 16.6306 20.9413 16.9371C20.9793 17.2436 21.0903 17.5362 21.2649 17.7901C21.4396 18.044 21.6726 18.2516 21.9442 18.3951C22.2157 18.5387 22.5177 18.6139 22.8244 18.6145H27.1588C27.2984 18.6143 27.4364 18.645 27.5629 18.7046C27.6894 18.7641 27.8013 18.851 27.8907 18.9591C27.9822 19.0656 28.0493 19.1912 28.0871 19.3269C28.1249 19.4626 28.1325 19.605 28.1093 19.7439Z" fill="white"/>
</svg>
