<svg width="23" height="23" viewBox="0 0 23 23" fill="none" xmlns="http://www.w3.org/2000/svg">
<path d="M20.3366 9.67603C20.0696 9.35554 19.7356 9.09755 19.358 8.92027C18.9804 8.74299 18.5685 8.65074 18.1514 8.65003H13.819L14.3511 7.29153C14.5724 6.69672 14.6461 6.05711 14.5659 5.42756C14.4856 4.79801 14.2539 4.19732 13.8905 3.67701C13.5271 3.1567 13.0428 2.7323 12.4794 2.44022C11.9159 2.14814 11.2899 1.99709 10.6553 2.00004C10.4725 2.00042 10.2937 2.0535 10.1404 2.15292C9.98703 2.25233 9.86561 2.39386 9.79068 2.56054L7.08294 8.65003H4.85025C4.09432 8.65003 3.36934 8.95029 2.83482 9.48477C2.30029 10.0192 2 10.7442 2 11.5V18.15C2 18.9059 2.30029 19.6308 2.83482 20.1653C3.36934 20.6997 4.09432 21 4.85025 21H16.9448C17.6116 20.9998 18.2572 20.7658 18.7693 20.3388C19.2814 19.9118 19.6275 19.3188 19.7475 18.663L20.9541 12.013C21.0288 11.602 21.0121 11.1797 20.9054 10.7758C20.7987 10.372 20.6045 9.99651 20.3366 9.67603ZM6.75041 19.1H4.85025C4.59827 19.1 4.35661 18.9999 4.17844 18.8218C4.00026 18.6436 3.90017 18.402 3.90017 18.15V11.5C3.90017 11.2481 4.00026 11.0064 4.17844 10.8283C4.35661 10.6501 4.59827 10.55 4.85025 10.55H6.75041V19.1ZM19.1015 11.671L17.8949 18.321C17.8544 18.5423 17.7367 18.7421 17.5627 18.8847C17.3887 19.0274 17.1698 19.1037 16.9448 19.1H8.65058V9.79953L11.2348 3.98554C11.5008 4.06308 11.7479 4.19492 11.9603 4.37274C12.1728 4.55056 12.3461 4.77049 12.4693 5.01865C12.5925 5.26682 12.663 5.53783 12.6761 5.81457C12.6893 6.09131 12.645 6.36778 12.5459 6.62653L12.0424 7.98503C11.9351 8.27217 11.8989 8.58101 11.9368 8.88518C11.9747 9.18936 12.0857 9.47983 12.2603 9.73183C12.4348 9.98382 12.6677 10.1898 12.9392 10.3323C13.2106 10.4748 13.5125 10.5495 13.819 10.55H18.1514C18.291 10.5498 18.4289 10.5803 18.5553 10.6394C18.6818 10.6985 18.7936 10.7848 18.883 10.892C18.9745 10.9978 19.0415 11.1224 19.0793 11.2571C19.1171 11.3918 19.1247 11.5331 19.1015 11.671Z" fill="#777474"/>
</svg>
