<svg width="35" height="35" viewBox="0 0 35 35" fill="none" xmlns="http://www.w3.org/2000/svg">
<circle cx="17.5" cy="17.5" r="13.5" fill="white"/>
<circle cx="17.5" cy="17.5" r="15.5" stroke="white" stroke-opacity="0.39" stroke-width="4"/>
<path d="M17.5 9L18.2295 8.31606L17.5 7.53789L16.7705 8.31606L17.5 9ZM16.5 15C16.5 15.5523 16.9477 16 17.5 16C18.0523 16 18.5 15.5523 18.5 15H16.5ZM21.2295 11.5161L18.2295 8.31606L16.7705 9.68394L19.7705 12.8839L21.2295 11.5161ZM16.7705 8.31606L13.7705 11.5161L15.2295 12.8839L18.2295 9.68394L16.7705 8.31606ZM16.5 9V15H18.5V9H16.5Z" fill="black"/>
<path d="M26.5 18L27.1839 18.7295L27.9621 18L27.1839 17.2705L26.5 18ZM20.5 17C19.9477 17 19.5 17.4477 19.5 18C19.5 18.5523 19.9477 19 20.5 19L20.5 17ZM23.9839 21.7295L27.1839 18.7295L25.8161 17.2705L22.6161 20.2705L23.9839 21.7295ZM27.1839 17.2705L23.9839 14.2705L22.6161 15.7295L25.8161 18.7295L27.1839 17.2705ZM26.5 17L20.5 17L20.5 19L26.5 19L26.5 17Z" fill="black"/>
<path d="M17.5 27L18.2295 27.6839L17.5 28.4621L16.7705 27.6839L17.5 27ZM16.5 21C16.5 20.4477 16.9477 20 17.5 20C18.0523 20 18.5 20.4477 18.5 21H16.5ZM21.2295 24.4839L18.2295 27.6839L16.7705 26.3161L19.7705 23.1161L21.2295 24.4839ZM16.7705 27.6839L13.7705 24.4839L15.2295 23.1161L18.2295 26.3161L16.7705 27.6839ZM16.5 27V21H18.5V27H16.5Z" fill="black"/>
<path d="M8.5 18L7.81606 18.7295L7.03789 18L7.81606 17.2705L8.5 18ZM14.5 17C15.0523 17 15.5 17.4477 15.5 18C15.5 18.5523 15.0523 19 14.5 19L14.5 17ZM11.0161 21.7295L7.81606 18.7295L9.18394 17.2705L12.3839 20.2705L11.0161 21.7295ZM7.81606 17.2705L11.0161 14.2705L12.3839 15.7295L9.18394 18.7295L7.81606 17.2705ZM8.5 17L14.5 17L14.5 19L8.5 19L8.5 17Z" fill="black"/>
</svg>
