<svg width="24" height="24" viewBox="0 0 24 24" fill="none" xmlns="http://www.w3.org/2000/svg">
<path d="M9.75 5C6.57436 5 4 7.57436 4 10.75V17.8569C4 18.2711 4.33579 18.6069 4.75 18.6069C5.16421 18.6069 5.5 18.2711 5.5 17.8569V10.75C5.5 8.40279 7.40279 6.5 9.75 6.5H16.7629C17.1771 6.5 17.5129 6.16421 17.5129 5.75C17.5129 5.33579 17.1771 5 16.7629 5H9.75Z" fill="#777474"/>
<path fill-rule="evenodd" clip-rule="evenodd" d="M19.1526 8.54326C15.9116 8.18104 12.5884 8.18104 9.34748 8.54326C8.4242 8.64645 7.68227 9.37304 7.57344 10.3035C7.18906 13.59 7.18906 16.91 7.57344 20.1965C7.68227 21.127 8.4242 21.8535 9.34748 21.9567C12.5884 22.319 15.9116 22.319 19.1526 21.9567C20.0758 21.8535 20.8178 21.127 20.9266 20.1965C21.311 16.91 21.311 13.59 20.9266 10.3035C20.8178 9.37304 20.0758 8.64645 19.1526 8.54326ZM9.51409 10.034C12.6443 9.68413 15.8557 9.68413 18.9859 10.034C19.2233 10.0605 19.4099 10.2482 19.4367 10.4777C19.8076 13.6484 19.8076 16.8516 19.4367 20.0223C19.4099 20.2518 19.2233 20.4395 18.9859 20.466C15.8557 20.8159 12.6443 20.8159 9.51409 20.466C9.27674 20.4395 9.09013 20.2518 9.06329 20.0223C8.69245 16.8516 8.69245 13.6484 9.06329 10.4777C9.09013 10.2482 9.27674 10.0605 9.51409 10.034Z" fill="#777474"/>
</svg>
