<svg width="31" height="31" viewBox="0 0 31 31" fill="none" xmlns="http://www.w3.org/2000/svg">
<path d="M28.0421 26.208L23.25 21.4546C25.1101 19.1353 26.0109 16.1915 25.7672 13.2284C25.5235 10.2653 24.1537 7.50824 21.9396 5.52406C19.7255 3.53988 16.8353 2.47943 13.8634 2.56075C10.8914 2.64207 8.06351 3.85899 5.96122 5.96128C3.85893 8.06358 2.64201 10.8914 2.56069 13.8634C2.47937 16.8354 3.53982 19.7256 5.524 21.9397C7.50818 24.1538 10.2653 25.5235 13.2283 25.7673C16.1914 26.011 19.1353 25.1102 21.4546 23.2501L26.2079 28.0034C26.328 28.1245 26.4709 28.2206 26.6283 28.2861C26.7857 28.3517 26.9545 28.3855 27.125 28.3855C27.2955 28.3855 27.4643 28.3517 27.6217 28.2861C27.7791 28.2206 27.922 28.1245 28.0421 28.0034C28.2749 27.7625 28.405 27.4407 28.405 27.1057C28.405 26.7707 28.2749 26.4488 28.0421 26.208ZM14.2083 23.2501C12.4201 23.2501 10.6719 22.7198 9.18505 21.7263C7.69816 20.7328 6.53926 19.3206 5.85492 17.6685C5.17058 16.0163 4.99152 14.1984 5.3404 12.4445C5.68927 10.6905 6.55041 9.07947 7.81491 7.81497C9.07941 6.55047 10.6905 5.68933 12.4444 5.34046C14.1983 4.99158 16.0163 5.17064 17.6684 5.85498C19.3206 6.53932 20.7327 7.69822 21.7262 9.18511C22.7197 10.672 23.25 12.4201 23.25 14.2084C23.25 16.6064 22.2974 18.9062 20.6018 20.6018C18.9061 22.2975 16.6063 23.2501 14.2083 23.2501Z" fill="#777474"/>
</svg>
