<svg width="31" height="31" viewBox="0 0 31 31" fill="none" xmlns="http://www.w3.org/2000/svg">
<path d="M27.5383 12.3355L25.0971 11.5217L26.2467 9.22255C26.3632 8.98189 26.4022 8.711 26.3582 8.44725C26.3142 8.1835 26.1895 7.9399 26.0012 7.75005L23.25 4.9988C23.0591 4.80774 22.8132 4.68131 22.5467 4.63729C22.2803 4.59327 22.0067 4.63387 21.7646 4.75338L19.4654 5.90296L18.6517 3.46171C18.5657 3.20724 18.4026 2.98589 18.185 2.82847C17.9673 2.67104 17.7061 2.58537 17.4375 2.58338H13.5625C13.2917 2.58268 13.0275 2.6671 12.8073 2.82472C12.5871 2.98233 12.4221 3.20516 12.3354 3.46171L11.5217 5.90296L9.22248 4.75338C8.98183 4.63684 8.71094 4.59787 8.44719 4.64182C8.18344 4.68578 7.93984 4.81051 7.74998 4.9988L4.99873 7.75005C4.80768 7.94091 4.68125 8.18685 4.63723 8.4533C4.59321 8.71975 4.63381 8.99329 4.75332 9.23546L5.9029 11.5346L3.46165 12.3484C3.20718 12.4343 2.98583 12.5974 2.82841 12.8151C2.67098 13.0327 2.58531 13.294 2.58332 13.5625V17.4375C2.58262 17.7083 2.66704 17.9725 2.82465 18.1927C2.98227 18.4129 3.2051 18.578 3.46165 18.6646L5.9029 19.4784L4.75332 21.7775C4.63678 22.0182 4.59781 22.2891 4.64176 22.5528C4.68572 22.8166 4.81045 23.0602 4.99873 23.25L7.74998 26.0013C7.94085 26.1924 8.18679 26.3188 8.45324 26.3628C8.71968 26.4068 8.99323 26.3662 9.2354 26.2467L11.5346 25.0971L12.3483 27.5384C12.435 27.7949 12.6001 28.0178 12.8203 28.1754C13.0405 28.333 13.3046 28.4174 13.5754 28.4167H17.4504C17.7212 28.4174 17.9854 28.333 18.2055 28.1754C18.4257 28.0178 18.5908 27.7949 18.6775 27.5384L19.4912 25.0971L21.7904 26.2467C22.0295 26.3603 22.2978 26.3977 22.5588 26.3538C22.8199 26.3099 23.0612 26.1868 23.25 26.0013L26.0012 23.25C26.1923 23.0592 26.3187 22.8132 26.3627 22.5468C26.4068 22.2803 26.3662 22.0068 26.2467 21.7646L25.0971 19.4655L27.5383 18.6517C27.7928 18.5658 28.0141 18.4026 28.1716 18.185C28.329 17.9674 28.4147 17.7061 28.4167 17.4375V13.5625C28.4174 13.2918 28.3329 13.0276 28.1753 12.8074C28.0177 12.5872 27.7949 12.4221 27.5383 12.3355ZM25.8333 16.5075L24.2833 17.0242C23.9269 17.1398 23.5999 17.3316 23.325 17.5862C23.0501 17.8408 22.8338 18.1522 22.6913 18.4988C22.5487 18.8453 22.4833 19.2187 22.4995 19.593C22.5156 19.9674 22.6131 20.3338 22.785 20.6667L23.5212 22.1392L22.1004 23.56L20.6667 22.785C20.3354 22.62 19.9726 22.5281 19.6027 22.5155C19.2329 22.5029 18.8646 22.5699 18.5229 22.7119C18.1812 22.854 17.874 23.0678 17.6221 23.339C17.3702 23.6101 17.1795 23.9322 17.0629 24.2834L16.5462 25.8334H14.4925L13.9758 24.2834C13.8602 23.927 13.6684 23.5999 13.4138 23.325C13.1592 23.0501 12.8478 22.8339 12.5013 22.6913C12.1547 22.5488 11.7813 22.4833 11.407 22.4995C11.0326 22.5157 10.6663 22.6131 10.3333 22.785L8.86082 23.5213L7.43998 22.1005L8.21498 20.6667C8.3869 20.3338 8.48432 19.9674 8.5005 19.593C8.51668 19.2187 8.45123 18.8453 8.30868 18.4988C8.16613 18.1522 7.94991 17.8408 7.675 17.5862C7.40009 17.3316 7.07308 17.1398 6.71665 17.0242L5.16665 16.5075V14.4925L6.71665 13.9759C7.07308 13.8603 7.40009 13.6685 7.675 13.4139C7.94991 13.1593 8.16613 12.8479 8.30868 12.5013C8.45123 12.1548 8.51668 11.7814 8.5005 11.407C8.48432 11.0327 8.3869 10.6663 8.21498 10.3334L7.47873 8.89963L8.89957 7.4788L10.3333 8.21505C10.6663 8.38696 11.0326 8.48438 11.407 8.50056C11.7813 8.51674 12.1547 8.45129 12.5013 8.30874C12.8478 8.16619 13.1592 7.94997 13.4138 7.67506C13.6684 7.40015 13.8602 7.07314 13.9758 6.71671L14.4925 5.16671H16.5075L17.0242 6.71671C17.1398 7.07314 17.3315 7.40015 17.5862 7.67506C17.8408 7.94997 18.1522 8.16619 18.4987 8.30874C18.8452 8.45129 19.2186 8.51674 19.593 8.50056C19.9673 8.48438 20.3337 8.38696 20.6667 8.21505L22.1392 7.4788L23.56 8.89963L22.785 10.3334C22.62 10.6646 22.528 11.0275 22.5154 11.3973C22.5028 11.7672 22.5698 12.1354 22.7119 12.4771C22.8539 12.8189 23.0678 13.126 23.3389 13.3779C23.61 13.6298 23.9321 13.8205 24.2833 13.9371L25.8333 14.4538V16.5075ZM15.5 10.3334C14.4781 10.3334 13.4792 10.6364 12.6295 11.2041C11.7799 11.7718 11.1177 12.5788 10.7266 13.5228C10.3356 14.4669 10.2332 15.5058 10.4326 16.508C10.632 17.5102 11.124 18.4309 11.8466 19.1534C12.5692 19.876 13.4898 20.3681 14.492 20.5674C15.4943 20.7668 16.5331 20.6645 17.4772 20.2734C18.4213 19.8824 19.2282 19.2201 19.7959 18.3705C20.3636 17.5208 20.6667 16.5219 20.6667 15.5C20.6667 14.1298 20.1223 12.8156 19.1534 11.8467C18.1844 10.8777 16.8703 10.3334 15.5 10.3334ZM15.5 18.0834C14.989 18.0834 14.4896 17.9319 14.0648 17.648C13.6399 17.3641 13.3088 16.9607 13.1133 16.4886C12.9178 16.0166 12.8666 15.4972 12.9663 14.9961C13.066 14.4949 13.312 14.0346 13.6733 13.6734C14.0346 13.3121 14.4949 13.066 14.996 12.9663C15.4971 12.8667 16.0165 12.9178 16.4886 13.1134C16.9606 13.3089 17.3641 13.64 17.6479 14.0648C17.9318 14.4896 18.0833 14.9891 18.0833 15.5C18.0833 16.1852 17.8111 16.8423 17.3267 17.3267C16.8422 17.8112 16.1851 18.0834 15.5 18.0834Z" fill="#777474"/>
</svg>
