<svg width="41" height="60" viewBox="0 0 41 60" fill="none" xmlns="http://www.w3.org/2000/svg">
<circle cx="20.5" cy="20.5" r="20.5" fill="#C2E2F3"/>
<path d="M10.3965 55.6855C10.4193 56.0924 10.5153 56.4229 10.6846 56.6768C11.0068 57.152 11.5749 57.3896 12.3887 57.3896C12.7533 57.3896 13.0853 57.3376 13.3848 57.2334C13.9642 57.0316 14.2539 56.6702 14.2539 56.1494C14.2539 55.7588 14.1318 55.4805 13.8877 55.3145C13.6403 55.1517 13.2529 55.0101 12.7256 54.8896L11.7539 54.6699C11.1191 54.5267 10.6699 54.3688 10.4062 54.1963C9.95052 53.8968 9.72266 53.4492 9.72266 52.8535C9.72266 52.209 9.94564 51.68 10.3916 51.2666C10.8376 50.8532 11.4691 50.6465 12.2861 50.6465C13.0381 50.6465 13.6761 50.8288 14.2002 51.1934C14.7275 51.5547 14.9912 52.1341 14.9912 52.9316H14.0781C14.0293 52.5475 13.9251 52.2529 13.7656 52.0479C13.4694 51.6735 12.9665 51.4863 12.2568 51.4863C11.6839 51.4863 11.2721 51.6068 11.0215 51.8477C10.7708 52.0885 10.6455 52.3685 10.6455 52.6875C10.6455 53.0391 10.792 53.2962 11.085 53.459C11.277 53.5632 11.7116 53.6934 12.3887 53.8496L13.3945 54.0791C13.8796 54.1898 14.2539 54.3411 14.5176 54.5332C14.9733 54.8685 15.2012 55.3551 15.2012 55.9932C15.2012 56.7874 14.9115 57.3555 14.332 57.6973C13.7559 58.0391 13.0853 58.21 12.3203 58.21C11.4284 58.21 10.7301 57.9821 10.2256 57.5264C9.72103 57.0739 9.47363 56.4603 9.4834 55.6855H10.3965ZM18.4922 52.6533C18.8633 52.6533 19.223 52.7412 19.5713 52.917C19.9196 53.0895 20.1849 53.3141 20.3672 53.5908C20.543 53.8545 20.6602 54.1621 20.7188 54.5137C20.7708 54.7546 20.7969 55.1387 20.7969 55.666H16.9639C16.9801 56.1966 17.1055 56.623 17.3398 56.9453C17.5742 57.2643 17.9372 57.4238 18.4287 57.4238C18.8877 57.4238 19.2539 57.2725 19.5273 56.9697C19.6836 56.7939 19.7943 56.5905 19.8594 56.3594H20.7236C20.7008 56.5514 20.6243 56.7663 20.4941 57.0039C20.3672 57.2383 20.224 57.4303 20.0645 57.5801C19.7975 57.8405 19.4671 58.0163 19.0732 58.1074C18.8617 58.1595 18.6224 58.1855 18.3555 58.1855C17.7044 58.1855 17.1527 57.9495 16.7002 57.4775C16.2477 57.0023 16.0215 56.3382 16.0215 55.4854C16.0215 54.6455 16.2493 53.9635 16.7051 53.4395C17.1608 52.9154 17.7565 52.6533 18.4922 52.6533ZM19.8936 54.9678C19.8577 54.5869 19.7747 54.2826 19.6445 54.0547C19.4036 53.6315 19.0016 53.4199 18.4385 53.4199C18.0348 53.4199 17.6963 53.5664 17.4229 53.8594C17.1494 54.1491 17.0046 54.5186 16.9883 54.9678H19.8936ZM21.8809 52.7705H22.7158V53.5127C22.9632 53.2067 23.2253 52.987 23.502 52.8535C23.7786 52.7201 24.0863 52.6533 24.4248 52.6533C25.167 52.6533 25.6683 52.9121 25.9287 53.4297C26.0719 53.7129 26.1436 54.1182 26.1436 54.6455V58H25.25V54.7041C25.25 54.3851 25.2028 54.1279 25.1084 53.9326C24.9521 53.6071 24.6689 53.4443 24.2588 53.4443C24.0505 53.4443 23.8796 53.4655 23.7461 53.5078C23.5052 53.5794 23.2936 53.7227 23.1113 53.9375C22.9648 54.11 22.8688 54.2891 22.8232 54.4746C22.7809 54.6569 22.7598 54.9189 22.7598 55.2607V58H21.8809V52.7705ZM28.0039 55.4463C28.0039 56.0062 28.1227 56.4749 28.3604 56.8525C28.598 57.2301 28.9788 57.4189 29.5029 57.4189C29.9098 57.4189 30.2435 57.2448 30.5039 56.8965C30.7676 56.5449 30.8994 56.042 30.8994 55.3877C30.8994 54.7269 30.7643 54.2386 30.4941 53.9229C30.224 53.6038 29.8903 53.4443 29.4932 53.4443C29.0505 53.4443 28.6908 53.6136 28.4141 53.9521C28.1406 54.2907 28.0039 54.7887 28.0039 55.4463ZM29.3271 52.6777C29.7275 52.6777 30.0628 52.7624 30.333 52.9316C30.4893 53.0293 30.6667 53.2002 30.8652 53.4443V50.8027H31.71V58H30.9189V57.2725C30.7139 57.5947 30.4714 57.8275 30.1914 57.9707C29.9115 58.1139 29.5908 58.1855 29.2295 58.1855C28.6468 58.1855 28.1423 57.9414 27.7158 57.4531C27.2894 56.9616 27.0762 56.3089 27.0762 55.4951C27.0762 54.7334 27.2699 54.0742 27.6572 53.5176C28.0479 52.9577 28.6045 52.6777 29.3271 52.6777Z" fill="#C2E2F3"/>
<path d="M29.17 17.23L15.17 11.45C14.6403 11.2308 14.0588 11.168 13.4945 11.2689C12.9302 11.3699 12.4066 11.6305 11.9858 12.0197C11.5649 12.409 11.2644 12.9108 11.1198 13.4655C10.9753 14.0203 10.9927 14.6049 11.17 15.15L12.71 20L11.13 24.85C10.9479 25.3974 10.9274 25.9856 11.0711 26.5443C11.2147 27.103 11.5164 27.6084 11.94 28C12.4847 28.5051 13.1973 28.7902 13.94 28.8C14.3347 28.7998 14.7255 28.7216 15.09 28.57L29.14 22.79C29.6872 22.5625 30.1547 22.1779 30.4836 21.685C30.8125 21.192 30.988 20.6126 30.988 20.02C30.988 19.4274 30.8125 18.8481 30.4836 18.3551C30.1547 17.8621 29.6872 17.4776 29.14 17.25L29.17 17.23ZM14.36 26.7C14.1836 26.7728 13.9901 26.7936 13.8022 26.7599C13.6144 26.7262 13.4402 26.6395 13.3 26.51C13.168 26.3839 13.073 26.224 13.0254 26.0477C12.9778 25.8714 12.9794 25.6855 13.03 25.51L14.49 21H28.22L14.36 26.7ZM14.49 19L13 14.53C12.9494 14.3546 12.9478 14.1686 12.9954 13.9923C13.043 13.8161 13.138 13.6562 13.27 13.53C13.3641 13.4313 13.4774 13.3529 13.603 13.2996C13.7285 13.2463 13.8636 13.2192 14 13.22C14.1341 13.2203 14.2667 13.2475 14.39 13.3L28.22 19H14.49Z" fill="white"/>
</svg>
