<svg width="24" height="24" viewBox="0 0 24 24" fill="none" xmlns="http://www.w3.org/2000/svg">
<path d="M20.17 9.23L6.16999 3.45C5.64027 3.23078 5.05883 3.16794 4.4945 3.26891C3.93017 3.36988 3.40659 3.63043 2.98574 4.01972C2.56488 4.40901 2.26439 4.91073 2.11982 5.46549C1.97525 6.02025 1.99266 6.60482 2.16999 7.15L3.70999 12L2.12999 16.85C1.94787 17.3974 1.92741 17.9856 2.07107 18.5443C2.21473 19.103 2.51642 19.6084 2.93999 20C3.48463 20.5051 4.19728 20.7901 4.93999 20.8C5.33473 20.7997 5.72553 20.7216 6.08999 20.57L20.14 14.79C20.6872 14.5624 21.1547 14.1779 21.4836 13.6849C21.8125 13.192 21.988 12.6126 21.988 12.02C21.988 11.4274 21.8125 10.848 21.4836 10.3551C21.1547 9.86209 20.6872 9.47756 20.14 9.25L20.17 9.23ZM5.35999 18.7C5.18359 18.7728 4.99006 18.7935 4.80223 18.7599C4.61441 18.7262 4.44014 18.6395 4.29999 18.51C4.16798 18.3838 4.07303 18.224 4.02543 18.0477C3.97783 17.8714 3.97941 17.6854 4.02999 17.51L5.48999 13H19.22L5.35999 18.7ZM5.48999 11L3.99999 6.53C3.94941 6.35455 3.94783 6.1686 3.99543 5.99232C4.04303 5.81603 4.13798 5.65615 4.26999 5.53C4.3641 5.43128 4.47741 5.35285 4.60295 5.29954C4.72849 5.24622 4.86361 5.21916 4.99999 5.22C5.13404 5.22026 5.26667 5.24746 5.38999 5.3L19.22 11H5.48999Z" fill="#777474"/>
</svg>
